<?xml version="1.0" encoding="iso-8859-1"?>
<!-- Generator: Adobe Illustrator 19.0.0, SVG Export Plug-In . SVG Version: 6.00 Build 0)  -->
<svg version="1.1" id="Capa_1" xmlns="http://www.w3.org/2000/svg" xmlns:xlink="http://www.w3.org/1999/xlink" x="0px" y="0px"
	 viewBox="0 0 512 512" style="enable-background:new 0 0 512 512;" xml:space="preserve">
<g>
	<g>
		<path d="M336,452c-5.52,0-10,4.48-10,10c0,5.52,4.48,10,10,10c5.52,0,10-4.48,10-10C346,456.48,341.52,452,336,452z"/>
	</g>
</g>
<g>
	<g>
		<path d="M296,452c-5.52,0-10,4.48-10,10c0,5.52,4.48,10,10,10c5.52,0,10-4.48,10-10C306,456.48,301.52,452,296,452z"/>
	</g>
</g>
<g>
	<g>
		<path d="M256,452c-5.52,0-10,4.48-10,10c0,5.52,4.48,10,10,10s10-4.48,10-10C266,456.48,261.52,452,256,452z"/>
	</g>
</g>
<g>
	<g>
		<path d="M216,86c-5.52,0-10,4.48-10,10s4.48,10,10,10s10-4.48,10-10S221.52,86,216,86z"/>
	</g>
</g>
<g>
	<g>
		<path d="M502,0H10C4.478,0,0,4.478,0,10v492c0,5.522,4.478,10,10,10h492c5.522,0,10-4.478,10-10V10C512,4.478,507.522,0,502,0z
			 M206,492H66v-20h140V492z M492,492H226v-30c0-5.522-4.478-10-10-10H56c-5.522,0-10,4.478-10,10v30H20v-60h472V492z M492,412H20
			V20h472V412z"/>
	</g>
</g>
<g>
	<g>
		<path d="M456,452h-80c-5.522,0-10,4.478-10,10c0,5.522,4.478,10,10,10h80c5.522,0,10-4.478,10-10C466,456.478,461.522,452,456,452
			z"/>
	</g>
</g>
<g>
	<g>
		<path d="M456,46h-40c-5.522,0-10,4.478-10,10v60c0,5.522,4.478,10,10,10h10v30c0,27.575-15.919,51.941-40.045,63.3
			c0.021-1.101,0.045-2.202,0.045-3.3c0-93.738-76.262-170-170-170S46,122.262,46,216s76.262,170,170,170
			c84.166,0,155.594-61.63,168.088-144.483C420.867,229.505,446,195.283,446,156v-30h10c5.522,0,10-4.478,10-10V56
			C466,50.478,461.522,46,456,46z M365.704,225.325c-0.53,0.073-1.06,0.144-1.593,0.206C359.854,214.136,348.861,206,336,206h-20
			c-16.575,0-30,13.425-30,30c0,16.542,13.458,30,30,30h20c11.006,0,20.641-5.961,25.861-14.821
			C345.955,317.797,286.244,366,216,366c-82.71,0-150-67.29-150-150S133.29,66,216,66s150,67.29,150,150
			C366,219.101,365.894,222.218,365.704,225.325z M346,236c0,5.514-4.486,10-10,10h-20c-5.514,0-10-4.486-10-10
			c0-5.52,4.479-10,10-10h20C341.514,226,346,230.486,346,236z M446,106h-20V66h20V106z"/>
	</g>
</g>
<g>
	<g>
		<path d="M185.992,99.365c-1.821-5.215-7.523-7.968-12.738-6.146C123.08,110.739,86,158.608,86,216c0,5.522,4.478,10,10,10
			c5.522,0,10-4.478,10-10c0-48.474,31.344-89.06,73.847-103.898C185.061,110.281,187.812,104.579,185.992,99.365z"/>
	</g>
</g>
<g>
	<g>
		<path d="M216,146c-38.598,0-70,31.402-70,70c0,38.598,31.402,70,70,70c38.598,0,70-31.402,70-70C286,177.402,254.598,146,216,146z
			 M216,266c-27.57,0-50-22.43-50-50s22.43-50,50-50s50,22.43,50,50S243.57,266,216,266z"/>
	</g>
</g>
<g>
	<g>
		<path d="M216,186c-16.542,0-30,13.458-30,30s13.458,30,30,30s30-13.458,30-30S232.542,186,216,186z M216,226
			c-5.514,0-10-4.486-10-10c0-5.514,4.486-10,10-10c5.514,0,10,4.486,10,10C226,221.514,221.514,226,216,226z"/>
	</g>
</g>
<g>
</g>
<g>
</g>
<g>
</g>
<g>
</g>
<g>
</g>
<g>
</g>
<g>
</g>
<g>
</g>
<g>
</g>
<g>
</g>
<g>
</g>
<g>
</g>
<g>
</g>
<g>
</g>
<g>
</g>
</svg>
